<?xml version="1.0" encoding="UTF-8"?><svg id="Layer_1" xmlns="http://www.w3.org/2000/svg" viewBox="0 0 1020 250"><defs><style>.cls-1{fill:#fff;stroke-width:0px;}</style></defs><path class="cls-1" d="m503.06,125.01h-73.55c-2.54,0-5.61,2.06-6.85,4.6l-15.69,32.16c-.62,1.27-.09,2.3,1.18,2.3h12.28c1.27,0,2.81-1.03,3.43-2.31l6.15-12.61h48.96l-6.16,12.64c-.62,1.26-.09,2.29,1.17,2.29h12.3c1.28,0,2.82-1.03,3.44-2.31l15.69-32.16c1.24-2.54.18-4.6-2.35-4.6Zm-18.33,12.38c-.71,1.46-2.5,2.66-3.96,2.66h-43.63c-1.46,0-2.08-1.2-1.36-2.66s2.5-2.66,3.96-2.66h43.63c1.46,0,2.08,1.2,1.36,2.66Z"/><path class="cls-1" d="m329.95,33.23l-205.17,24.97c-17.32,2.2-39.38,17.68-49.02,34.39l-46.23,97.8c-9.64,16.72-3.37,28.59,13.95,26.4l204.9-25.56c10.58-1.34,22.91-7.69,33.12-16.19h-50.03l-5.38-10.51,25.91-53.13-4.66-9.1h-23.84l-13.62,9.15-27.59,56.57-10.49,7.05h-24.29l-5.4-10.54,25.89-53.08-25.89,53.08,25.9-53.1-4.68-9.13h-71.09l6.22-12.75c3.05-6.26,10.6-11.33,16.86-11.33h183.32c6.3,0,8.92,5.11,5.85,11.42l-36.32,74.46h24.2c1.9-2.37,3.62-4.79,5.04-7.25l46.51-97.21c9.64-16.72,3.37-28.59-13.95-26.4Zm-201.72,81.13l-26.32,53.89-10.43,7.01h-24.1l-5.5-10.74,24.47-50.17h41.88Z"/><polygon class="cls-1" points="518.2 125.01 513.46 134.73 546.8 134.73 533.89 161.19 535.37 164.08 546.49 164.08 550.75 161.21 563.67 134.73 596.93 134.73 601.67 125.01 518.2 125.01"/><path class="cls-1" d="m680.41,125.01h-61.21c-3.79,0-8.37,3.08-10.22,6.87l-8.09,16.58c-4.21,8.62-.62,15.61,8,15.61h61.2c3.81,0,8.4-3.09,10.25-6.89l8.08-16.56c4.21-8.62.63-15.62-8-15.62Zm-9.38,16.61l-4.43,9.08c-.99,2.02-3.43,3.66-5.45,3.66h-39.35c-3.81,0-5.39-3.09-3.53-6.9l4.42-9.06c.99-2.03,3.45-3.68,5.48-3.68h39.33c3.81,0,5.39,3.09,3.54,6.9Z"/><path class="cls-1" d="m719.14,134.73h67.1l2.5-5.12c1.24-2.54.18-4.6-2.35-4.6h-74.79c-2.54,0-5.61,2.06-6.85,4.6l-2.49,5.11-9.58,19.64-2.5,5.12c-1.24,2.54-.18,4.59,2.35,4.59h57.9c2.55,0,5.61-2.06,6.85-4.61l-2.25,4.61h16.89l7.28-14.92,4.44-9.1h-34.11l-4.44,9.1h17.22l-2.54,5.21h-46.76c-1.9,0-2.69-1.54-1.76-3.44l7.9-16.2Z"/><path class="cls-1" d="m873.59,140.05h-62.51c-1.47,0-2.08-1.19-1.36-2.66.72-1.47,2.49-2.66,3.96-2.66h65.93l3.06-6.27c.93-1.9.14-3.44-1.76-3.44h-74.72c-2.54,0-5.59,2.06-6.83,4.59l-12.01,24.62c-2.66,5.45-.39,9.86,5.05,9.86h72.89l3.06-6.27c.93-1.9.14-3.45-1.77-3.45h-62.54c-1.44,0-2.04-1.17-1.33-2.6.7-1.44,2.44-2.6,3.88-2.6h65.99l2.77-5.68c.92-1.89.14-3.42-1.75-3.42Z"/><polygon class="cls-1" points="961.79 125.01 950.01 149.16 919.23 125.01 896.13 125.01 877.07 164.08 893.97 164.08 907.65 136.03 942.73 164.08 959.63 164.08 978.68 125.01 961.79 125.01"/><path class="cls-1" d="m409.23,125.01h-73.94c-2.52,0-5.57,2.05-6.8,4.57l-2.51,5.14h28.67l1.89,3.68h0s-10.44,21.42-10.44,21.42l2.18,4.25h9.8l4.23-2.84,11.13-22.82,5.49-3.69h9.62l1.88,3.67-10.45,21.43,2.17,4.24h9.81l4.22-2.84,15.42-31.61c1.24-2.54.18-4.6-2.36-4.6Z"/><polygon class="cls-1" points="313.74 159.83 315.96 164.16 325.68 164.16 329.89 161.33 341.08 138.42 324.19 138.42 313.74 159.83"/><path class="cls-1" d="m358.54,106.7l1.49-10.65c.34-2.32.84-5.53,1.38-8.31h-.1c-1.17,2.64-2.5,5.57-3.74,7.98l-5.58,10.71h-3.03l-1.19-10.54c-.27-2.54-.47-5.45-.6-8.15h-.07c-.57,2.59-1.26,6.01-1.82,8.31l-2.62,10.65h-3.63l5.77-22.65h5.16l1.2,10.58c.17,2.03.42,4.38.46,6.52h.11c.81-2.14,1.9-4.52,2.88-6.49l5.46-10.61h5.25l-2.98,22.65h-3.81Z"/><path class="cls-1" d="m375.54,106.7c.01-.97.14-2.28.28-3.68h-.07c-1.63,3.02-3.79,4.05-5.88,4.05-2.91,0-4.84-2.29-4.84-5.57,0-5.6,3.9-11.54,11.53-11.54,1.78,0,3.7.33,4.97.73l-1.7,8.54c-.47,2.44-.74,5.52-.67,7.46h-3.61Zm1.58-13.53c-.38-.1-.91-.18-1.6-.18-3.61,0-6.41,4.08-6.42,7.8,0,1.7.64,3.11,2.34,3.11,1.84,0,4.06-2.27,4.84-6.43l.85-4.3Z"/><path class="cls-1" d="m389.69,85.84l-.85,4.5h3.67l-.59,3.01h-3.69l-1.28,6.62c-.15.77-.3,1.61-.3,2.32,0,.88.4,1.47,1.47,1.47.46,0,.93-.02,1.32-.1l-.37,3.07c-.57.22-1.61.33-2.54.33-2.71,0-3.9-1.49-3.9-3.36,0-.92.11-1.83.35-3.05l1.41-7.3h-2.2l.57-3.01h2.22l.67-3.55,4.02-.94Z"/><path class="cls-1" d="m407.2,96.73c0,5.56-3.88,10.33-9.47,10.33-4.13,0-6.69-2.85-6.69-6.75,0-5.54,3.87-10.36,9.46-10.36,4.4,0,6.7,3.16,6.7,6.77Zm-12.11,3.49c0,2.25,1.19,3.82,3.19,3.82,2.92,0,4.87-4.05,4.87-7.29,0-1.7-.76-3.76-3.13-3.76-3.12,0-4.94,4.15-4.93,7.23Z"/><path class="cls-1" d="m408,109.62c.95.57,2.78.97,4.31.97,2.55,0,4.51-1.22,5.32-5l.4-1.86h-.08c-1.35,1.96-3.05,2.89-5.13,2.89-3.27,0-5.12-2.69-5.13-5.76-.02-5.47,3.93-10.9,10.7-10.9,2.13,0,4.18.47,5.69,1.14l-2.49,13.5c-.6,3.21-1.54,5.76-3.37,7.29-1.71,1.42-4.01,1.83-6.06,1.83s-4.06-.43-5.14-1.1l.96-3.01Zm11.84-16.2c-.44-.21-1.27-.41-2.17-.41-3.44,0-5.85,3.71-5.86,7.23,0,1.72.69,3.34,2.62,3.34s3.92-2.34,4.47-5.29l.93-4.87Z"/><path class="cls-1" d="m436.76,105.76c-1.61.84-3.81,1.29-5.8,1.29-4.53,0-6.7-2.79-6.7-6.77,0-4.95,3.63-10.32,9.25-10.32,3.23,0,5.29,1.86,5.3,4.59,0,4.22-4.41,5.57-10.74,5.42-.05.57.08,1.67.44,2.32.64,1.12,1.83,1.67,3.36,1.67,1.84,0,3.34-.48,4.51-1.08l.37,2.86Zm-3.74-12.87c-2.43,0-4.05,2.19-4.53,4.17,4.04.05,6.63-.5,6.63-2.48,0-1.05-.84-1.7-2.09-1.7Z"/><path class="cls-1" d="m438.36,106.7l2.13-11.29c.39-1.96.63-3.66.84-5.08h3.48l-.36,2.94h.07c1.51-2.2,3.6-3.31,5.88-3.31s4.17,1.41,4.17,4.51c0,.73-.14,1.87-.29,2.7l-1.81,9.52h-3.91l1.74-9.23c.11-.6.2-1.31.2-1.95,0-1.37-.5-2.36-2.05-2.36-1.77,0-4.05,2.16-4.75,5.97l-1.42,7.57h-3.91Z"/><path class="cls-1" d="m465.29,100.23l-3.09,6.46h-4.16l11.34-22.65h4.9l2.86,22.65h-4.08l-.67-6.46h-7.11Zm6.9-3.03l-.64-5.63c-.11-1.21-.24-2.96-.35-4.32h-.07c-.6,1.37-1.19,2.98-1.84,4.3l-2.75,5.65h5.65Z"/><path class="cls-1" d="m476.84,113.35l3.21-16.93c.37-1.95.73-4.43.94-6.09h3.53l-.37,2.7h.07c1.4-1.95,3.44-3.07,5.53-3.07,3.55,0,5.17,2.88,5.17,6.07,0,5.72-3.94,11.03-9.52,11.03-1.51,0-2.66-.35-3.26-.7h-.07l-1.32,6.99h-3.9Zm5.86-10.13c.62.52,1.49.83,2.61.83,3.05,0,5.52-4.03,5.52-7.72,0-1.49-.65-3.17-2.58-3.17s-4.14,2.24-4.84,6.06l-.7,4Z"/><path class="cls-1" d="m493.5,113.35l3.21-16.93c.37-1.95.73-4.43.94-6.09h3.53l-.37,2.7h.07c1.4-1.95,3.43-3.07,5.53-3.07,3.54,0,5.17,2.88,5.17,6.07,0,5.72-3.94,11.03-9.52,11.03-1.51,0-2.66-.35-3.26-.7h-.07l-1.32,6.99h-3.9Zm5.86-10.13c.62.52,1.49.83,2.61.83,3.04,0,5.51-4.03,5.51-7.72,0-1.49-.65-3.17-2.58-3.17s-4.14,2.24-4.84,6.06l-.7,4Z"/><path class="cls-1" d="m511.55,106.7l4.56-23.86h3.92l-4.56,23.86h-3.91Z"/><path class="cls-1" d="m518.22,106.7l3.12-16.36h3.91l-3.12,16.36h-3.91Zm3.73-20.82c0-1.38,1.08-2.36,2.35-2.36s2.09.85,2.09,2.1c-.02,1.44-1.09,2.34-2.42,2.34-1.19,0-2.02-.85-2.01-2.09Z"/><path class="cls-1" d="m537.75,105.76c-1.61.84-3.81,1.29-5.8,1.29-4.53,0-6.69-2.79-6.69-6.77,0-4.95,3.63-10.32,9.25-10.32,3.23,0,5.3,1.86,5.3,4.59,0,4.22-4.41,5.57-10.74,5.42-.05.57.08,1.67.44,2.32.64,1.12,1.83,1.67,3.36,1.67,1.84,0,3.34-.48,4.51-1.08l.37,2.86Zm-3.74-12.87c-2.43,0-4.05,2.19-4.53,4.17,4.04.05,6.62-.5,6.62-2.48,0-1.05-.84-1.7-2.09-1.7Z"/><path class="cls-1" d="m557.84,82.83l-3.44,18.03c-.36,1.91-.64,4.06-.73,5.83h-3.58l.32-2.91h-.07c-1.46,2.24-3.49,3.28-5.6,3.28-2.94,0-4.98-2.37-4.98-6.08,0-5.75,4.2-11.03,10.21-11.03.83,0,1.82.17,2.52.47l1.45-7.6h3.9Zm-5.92,10.79c-.47-.35-1.28-.63-2.25-.63-3.35,0-5.84,3.71-5.84,7.39,0,1.98.78,3.51,2.63,3.51,1.73,0,3.84-1.91,4.5-5.29l.96-4.98Z"/><path class="cls-1" d="m568.82,84.04l-4.31,22.65h-3.91l4.3-22.65h3.92Z"/><path class="cls-1" d="m567.44,106.7l2.13-11.29c.39-1.96.63-3.66.84-5.08h3.48l-.36,2.94h.07c1.51-2.2,3.61-3.31,5.88-3.31s4.17,1.41,4.17,4.51c0,.73-.14,1.87-.29,2.7l-1.81,9.52h-3.92l1.74-9.23c.11-.6.2-1.31.2-1.95,0-1.37-.5-2.36-2.05-2.36-1.77,0-4.05,2.16-4.75,5.97l-1.42,7.57h-3.91Z"/><path class="cls-1" d="m584.66,103.05c.86.46,2.45,1.09,3.93,1.08,1.6,0,2.53-.91,2.53-2.02,0-1.01-.55-1.67-2.14-2.51-1.89-.98-3.24-2.39-3.24-4.27,0-3.15,2.75-5.37,6.63-5.37,1.72,0,3.13.39,3.85.83l-.99,2.83c-.63-.32-1.73-.73-3.07-.73-1.47,0-2.48.78-2.48,1.89,0,.92.72,1.55,2.11,2.27,1.8.96,3.39,2.32,3.39,4.39,0,3.61-3.01,5.6-6.95,5.6-1.93,0-3.72-.56-4.58-1.21l1.01-2.79Z"/><path class="cls-1" d="m595.91,106.7l3.12-16.36h3.91l-3.12,16.36h-3.91Zm3.73-20.82c0-1.38,1.08-2.36,2.35-2.36s2.09.85,2.09,2.1c-.02,1.44-1.09,2.34-2.42,2.34-1.19,0-2.02-.85-2.01-2.09Z"/><path class="cls-1" d="m603.25,109.62c.96.57,2.78.97,4.32.97,2.55,0,4.51-1.22,5.32-5l.4-1.86h-.08c-1.35,1.96-3.05,2.89-5.13,2.89-3.27,0-5.12-2.69-5.13-5.76-.02-5.47,3.92-10.9,10.69-10.9,2.13,0,4.18.47,5.7,1.14l-2.49,13.5c-.6,3.21-1.54,5.76-3.38,7.29-1.71,1.42-4.01,1.83-6.06,1.83s-4.06-.43-5.13-1.1l.96-3.01Zm11.84-16.2c-.44-.21-1.27-.41-2.17-.41-3.44,0-5.85,3.71-5.86,7.23,0,1.72.69,3.34,2.63,3.34s3.91-2.34,4.47-5.29l.93-4.87Z"/><path class="cls-1" d="m619.17,106.7l4.53-23.86h3.92l-1.92,9.95h.07c1.37-1.71,3.2-2.82,5.49-2.82s4.1,1.39,4.1,4.41c0,.82-.12,1.98-.29,2.87l-1.79,9.46h-3.92l1.74-9.18c.12-.62.21-1.35.21-2.13,0-1.27-.57-2.23-2.05-2.23-1.9,0-4.06,2.28-4.71,5.74l-1.47,7.81h-3.91Z"/><path class="cls-1" d="m644.36,85.84l-.85,4.5h3.68l-.59,3.01h-3.68l-1.28,6.62c-.16.77-.3,1.61-.3,2.32,0,.88.4,1.47,1.47,1.47.46,0,.92-.02,1.32-.1l-.37,3.07c-.57.22-1.61.33-2.54.33-2.71,0-3.89-1.49-3.89-3.36,0-.92.1-1.83.35-3.05l1.42-7.3h-2.2l.57-3.01h2.21l.67-3.55,4.02-.94Z"/><path class="cls-1" d="m645.88,103.05c.86.46,2.45,1.09,3.93,1.08,1.6,0,2.53-.91,2.53-2.02,0-1.01-.55-1.67-2.14-2.51-1.89-.98-3.24-2.39-3.24-4.27,0-3.15,2.75-5.37,6.63-5.37,1.72,0,3.13.39,3.85.83l-.99,2.83c-.63-.32-1.73-.73-3.07-.73-1.47,0-2.48.78-2.48,1.89,0,.92.72,1.55,2.11,2.27,1.8.96,3.39,2.32,3.39,4.39,0,3.61-3.01,5.6-6.95,5.6-1.93,0-3.72-.56-4.58-1.21l1.01-2.79Z"/><path class="cls-1" d="m672.76,84.23c-1.16,1.84-2.14,3.68-2.94,5.53-.8,1.84-1.45,3.64-1.95,5.39-.5,1.75-.87,3.44-1.09,5.07-.23,1.63-.34,3.14-.34,4.54,0,.5.01,1.05.04,1.63s.07,1.17.13,1.76.14,1.17.22,1.74.18,1.1.3,1.58c.03.18.04.32.02.45s-.08.23-.2.32-.3.15-.55.2-.6.07-1.03.07c-.31,0-.56-.01-.77-.03s-.38-.05-.51-.09-.23-.09-.29-.15-.1-.13-.12-.21c-.38-1.26-.69-2.59-.93-4.01-.23-1.41-.35-2.91-.35-4.5,0-1.37.1-2.8.31-4.3s.56-3.07,1.07-4.71c.5-1.64,1.18-3.35,2.03-5.12.85-1.77,1.91-3.6,3.19-5.51.07-.1.14-.18.24-.25s.22-.13.38-.17.37-.08.62-.1.57-.03.95-.03.71.02.96.06.43.09.56.17.19.18.2.3-.04.25-.14.39Z"/><path class="cls-1" d="m674.78,84.42c1.38-.33,3.43-.53,5.46-.53s4.34.41,5.8,1.61c1.33,1.01,2.09,2.49,2.09,4.5,0,2.7-1.27,4.84-2.91,6.15-1.81,1.46-4.41,2.13-7.08,2.13-.82,0-1.53-.08-2.12-.16l-1.64,8.58h-3.83l4.23-22.27Zm1.84,10.46c.64.14,1.22.19,2.04.19,3.32,0,5.53-2.09,5.53-4.77,0-2.41-1.73-3.28-3.92-3.28-1,0-1.74.08-2.18.19l-1.47,7.67Z"/><path class="cls-1" d="m695.61,85.84l-.85,4.5h3.68l-.59,3.01h-3.68l-1.28,6.62c-.16.77-.3,1.61-.3,2.32,0,.88.4,1.47,1.47,1.47.46,0,.92-.02,1.32-.1l-.37,3.07c-.57.22-1.61.33-2.54.33-2.71,0-3.89-1.49-3.89-3.36,0-.92.1-1.83.35-3.05l1.42-7.3h-2.2l.57-3.01h2.21l.67-3.55,4.02-.94Z"/><path class="cls-1" d="m702.02,90.33l1.28,7.88c.3,1.78.49,2.96.63,4.08h.08c.39-1.02.81-2.11,1.57-3.9l3.51-8.05h4.14l-5.97,12.06c-1.99,3.99-3.81,6.91-6.01,9.02-1.87,1.83-4.02,2.62-5.02,2.81l-.9-3.37c.73-.23,1.86-.66,2.88-1.41,1.1-.8,2.15-1.93,2.88-3.26.14-.26.14-.45.08-.77l-3.25-15.08h4.11Z"/><path class="cls-1" d="m709.7,111.56c1.15-1.84,2.13-3.68,2.93-5.52.8-1.84,1.46-3.64,1.96-5.39.5-1.76.87-3.44,1.1-5.07.23-1.62.34-3.13.34-4.53,0-.51-.02-1.06-.05-1.64s-.08-1.17-.14-1.76-.14-1.17-.22-1.73-.19-1.09-.31-1.57c-.03-.18-.04-.33-.02-.46s.09-.24.21-.33.3-.15.55-.19.6-.06,1.04-.06c.31,0,.56,0,.76.02s.37.05.5.09.23.09.29.15.1.12.12.2c.38,1.26.69,2.59.93,4.01s.35,2.92.35,4.52c0,1.37-.1,2.8-.31,4.3-.21,1.5-.56,3.07-1.07,4.7-.5,1.64-1.18,3.34-2.02,5.12s-1.9,3.61-3.19,5.5c-.08.1-.16.18-.25.25s-.22.13-.38.18-.36.09-.61.11-.57.03-.96.03-.73-.02-.97-.07-.42-.1-.55-.18-.19-.17-.19-.29.05-.25.13-.4Z"/><path class="cls-1" d="m728.97,84.04h3.92l-3.66,19.24h8.9l-.64,3.42h-12.81l4.3-22.65Z"/><path class="cls-1" d="m746.92,85.84l-.85,4.5h3.68l-.59,3.01h-3.68l-1.28,6.62c-.16.77-.3,1.61-.3,2.32,0,.88.4,1.47,1.47,1.47.46,0,.92-.02,1.32-.1l-.37,3.07c-.57.22-1.61.33-2.54.33-2.71,0-3.89-1.49-3.89-3.36,0-.92.1-1.83.35-3.05l1.42-7.3h-2.2l.57-3.01h2.21l.67-3.55,4.02-.94Z"/><path class="cls-1" d="m766.26,82.83l-3.44,18.03c-.36,1.91-.64,4.06-.73,5.83h-3.58l.32-2.91h-.07c-1.46,2.24-3.49,3.28-5.6,3.28-2.94,0-4.98-2.37-4.98-6.08,0-5.75,4.2-11.03,10.21-11.03.83,0,1.82.17,2.52.47l1.45-7.6h3.9Zm-5.92,10.79c-.47-.35-1.28-.63-2.25-.63-3.35,0-5.84,3.71-5.84,7.39,0,1.98.78,3.51,2.63,3.51,1.73,0,3.84-1.91,4.5-5.29l.96-4.98Z"/><path class="cls-1" d="m771.62,104.41c1.17.85,2.74,1.46,4.51,1.46,2.98,0,5.73-1.93,5.73-5.27,0-1.93-.93-3.46-3.48-4.89-3.21-1.75-4.41-3.59-4.41-5.72,0-3.75,3.18-6.24,6.89-6.24,1.88,0,3.55.67,4.21,1.22l-.66,1.2c-.7-.45-2-1.11-3.77-1.11-3.14,0-5.15,2.3-5.15,4.55,0,2.17,1,3.36,3.66,4.83,2.83,1.54,4.24,3.3,4.24,6.13,0,3.24-2.4,6.64-7.56,6.64-1.73,0-3.96-.68-4.83-1.55l.63-1.24Z"/><path class="cls-1" d="m800.08,97.05c0,4.44-3.23,10.17-8.58,10.17-4.02,0-5.98-3.22-5.98-6.62,0-5.2,3.59-10.32,8.56-10.32,4.38,0,6.01,3.51,6.01,6.78Zm-12.99,3.42c0,3.1,1.79,5.44,4.61,5.44,3.7,0,6.81-4.5,6.81-8.9,0-2.14-1.01-5.44-4.55-5.44-3.97,0-6.88,4.43-6.88,8.9Z"/><path class="cls-1" d="m801.03,106.84l4.56-23.96h1.53l-4.57,23.96h-1.52Z"/><path class="cls-1" d="m808.7,90.65l1.81,10.56c.3,1.75.52,3.02.57,3.7h.08c.31-.67.7-1.63,1.68-3.38l6-10.88h1.61l-9.02,16.2h-1.41l-2.84-16.2h1.52Z"/><path class="cls-1" d="m819.43,106.84l3.1-16.2h1.52l-3.1,16.2h-1.52Zm3.51-20.85c.02-.73.54-1.37,1.26-1.37s1.19.61,1.19,1.37c-.05.72-.51,1.36-1.3,1.36-.75,0-1.17-.64-1.15-1.36Z"/><path class="cls-1" d="m825.03,106.84l2.24-11.84c.33-1.65.53-3.09.69-4.36h1.42l-.49,3.49h.07c1.42-2.39,3.71-3.86,6.23-3.86,1.47,0,4.06.78,4.06,4.54,0,.72-.13,1.63-.3,2.55l-1.81,9.48h-1.52l1.82-9.61c.12-.67.24-1.49.24-2.24,0-1.93-.78-3.38-3.12-3.38s-5.71,2.64-6.49,6.92l-1.53,8.3h-1.52Z"/><path class="cls-1" d="m840.66,111.43c1.03.68,2.42,1.17,4.33,1.17,2.95,0,5.32-1.59,6.46-6.7l.69-3.09h-.09c-1.52,2.75-3.81,4.1-6.26,4.1-3.27,0-4.78-2.83-4.78-5.51,0-5.63,4.16-11.13,9.94-11.13,1.62,0,3.7.59,4.7,1.13l-2.51,13.42c-.71,3.72-1.65,5.91-3.18,7.3-1.54,1.4-3.63,1.78-5.27,1.78-1.86,0-3.64-.49-4.6-1.21l.57-1.26Zm13.29-19.11c-.61-.31-1.81-.72-3.29-.72-4.79,0-8.05,4.89-8.07,9.47-.02,1.9.58,4.54,3.68,4.54,2.92,0,5.86-3.81,6.52-7.24l1.16-6.06Z"/><path class="cls-1" d="m861.72,106.84l2.84-14.93h-2.2l.25-1.27h2.21l.16-.89c.43-2.46,1.26-4.59,2.61-5.88.85-.8,2.07-1.37,3.36-1.37,1.11,0,1.75.24,2.04.45l-.46,1.25c-.43-.23-1.05-.35-1.69-.35-2.62,0-3.78,2.67-4.36,6.02l-.13.77h3.88l-.26,1.27h-3.88l-2.85,14.93h-1.51Z"/><path class="cls-1" d="m883.21,97.05c0,4.44-3.23,10.17-8.58,10.17-4.02,0-5.98-3.22-5.98-6.62,0-5.2,3.59-10.32,8.56-10.32,4.38,0,6.01,3.51,6.01,6.78Zm-12.99,3.42c0,3.1,1.79,5.44,4.61,5.44,3.7,0,6.81-4.5,6.81-8.9,0-2.14-1.01-5.44-4.55-5.44-3.97,0-6.88,4.43-6.88,8.9Z"/><path class="cls-1" d="m884.17,106.84l2.08-10.93c.36-1.91.63-3.69.82-5.26h1.39c-.16,1.15-.32,2.3-.55,3.64h.09c1.01-2.26,2.7-4.02,4.84-4.02.23,0,.56.02.73.08l-.3,1.54c-.19-.05-.42-.08-.76-.08-2.01,0-4.6,3.05-5.37,7.17l-1.47,7.86h-1.52Z"/><path class="cls-1" d="m897.21,104.41c1.17.85,2.74,1.46,4.51,1.46,2.98,0,5.73-1.93,5.73-5.27,0-1.93-.93-3.46-3.48-4.89-3.21-1.75-4.41-3.59-4.41-5.72,0-3.75,3.18-6.24,6.89-6.24,1.88,0,3.55.67,4.21,1.22l-.66,1.2c-.7-.45-2-1.11-3.77-1.11-3.14,0-5.15,2.3-5.15,4.55,0,2.17,1,3.36,3.66,4.83,2.83,1.54,4.24,3.3,4.24,6.13,0,3.24-2.4,6.64-7.56,6.64-1.73,0-3.96-.68-4.83-1.55l.63-1.24Z"/><path class="cls-1" d="m925.39,90.65l-2.26,11.84c-.3,1.65-.51,3.09-.63,4.36h-1.43l.5-3.32h-.07c-1.31,2.12-3.54,3.7-5.8,3.7-1.76,0-4.35-.71-4.35-4.79,0-.71.09-1.52.3-2.57l1.77-9.21h1.52l-1.77,9.26c-.19,1-.3,1.76-.3,2.52,0,2.08.85,3.42,3.19,3.42s5.43-2.62,6.14-6.39l1.68-8.81h1.52Z"/><path class="cls-1" d="m937.07,106.12c-.7.35-2.4,1.08-4.78,1.08-4.28,0-5.86-3.06-5.86-6.02,0-5.39,3.93-10.9,9.54-10.9,1.59,0,3.07.56,3.42.85l-.56,1.29c-.69-.35-1.72-.74-3.1-.74-4.72,0-7.73,4.94-7.73,9.26,0,2.88,1.36,4.94,4.57,4.94,1.81,0,3.25-.62,4.08-1.05l.41,1.29Z"/><path class="cls-1" d="m949.45,106.12c-.7.35-2.4,1.08-4.78,1.08-4.28,0-5.86-3.06-5.86-6.02,0-5.39,3.93-10.9,9.54-10.9,1.59,0,3.07.56,3.42.85l-.56,1.29c-.69-.35-1.72-.74-3.1-.74-4.72,0-7.73,4.94-7.73,9.26,0,2.88,1.36,4.94,4.57,4.94,1.81,0,3.25-.62,4.08-1.05l.41,1.29Z"/><path class="cls-1" d="m961.71,105.92c-.81.52-2.51,1.28-4.92,1.28-4.1,0-5.64-3.13-5.64-6.31,0-4.85,3.65-10.61,8.47-10.61,2.95,0,4.2,1.83,4.2,3.71,0,4.34-5.28,5.22-10.96,5.15-.23.85-.18,2.85.21,3.97.67,1.86,2.08,2.77,3.92,2.77,2.04,0,3.44-.68,4.25-1.16l.46,1.21Zm-2.35-14.32c-2.92,0-5.37,3.05-6.27,6.24,4.78.06,9.18-.57,9.18-3.75,0-1.66-1.23-2.5-2.91-2.5Z"/><path class="cls-1" d="m963.96,104.94c.67.46,1.83.94,3.02.94,2.2,0,3.74-1.55,3.74-3.38,0-1.56-.6-2.51-2.4-3.56-1.88-1.11-2.62-2.58-2.62-4.02,0-2.5,2.14-4.63,5.09-4.63,1.21,0,2.39.4,2.88.78l-.56,1.3c-.48-.33-1.43-.76-2.51-.76-1.97,0-3.38,1.38-3.38,3.07,0,1.52.85,2.35,2.39,3.27,1.83,1.1,2.65,2.6,2.65,4.15,0,3.21-2.53,5.1-5.4,5.1-1.55,0-2.86-.54-3.46-1.01l.57-1.25Z"/><path class="cls-1" d="m974.29,104.94c.67.46,1.83.94,3.02.94,2.2,0,3.74-1.55,3.74-3.38,0-1.56-.6-2.51-2.4-3.56-1.88-1.11-2.62-2.58-2.62-4.02,0-2.5,2.14-4.63,5.09-4.63,1.21,0,2.39.4,2.88.78l-.56,1.3c-.48-.33-1.43-.76-2.51-.76-1.97,0-3.38,1.38-3.38,3.07,0,1.52.85,2.35,2.39,3.27,1.83,1.1,2.65,2.6,2.65,4.15,0,3.21-2.53,5.1-5.4,5.1-1.55,0-2.86-.54-3.46-1.01l.57-1.25Z"/></svg>