<?xml version="1.0" encoding="UTF-8"?><svg id="Layer_1" xmlns="http://www.w3.org/2000/svg" viewBox="0 0 1020 250"><defs><style>.cls-1{fill:#fff;stroke-width:0px;}</style></defs><path class="cls-1" d="m503.06,125.01h-73.55c-2.54,0-5.61,2.06-6.85,4.6l-15.69,32.16c-.62,1.27-.09,2.3,1.18,2.3h12.28c1.27,0,2.81-1.03,3.43-2.31l6.15-12.61h48.96l-6.16,12.64c-.62,1.26-.09,2.29,1.17,2.29h12.3c1.28,0,2.82-1.03,3.44-2.31l15.69-32.16c1.24-2.54.18-4.6-2.35-4.6Zm-18.33,12.38c-.71,1.46-2.5,2.66-3.96,2.66h-43.63c-1.46,0-2.08-1.2-1.36-2.66s2.5-2.66,3.96-2.66h43.63c1.46,0,2.08,1.2,1.36,2.66Z"/><path class="cls-1" d="m329.95,33.23l-205.17,24.97c-17.32,2.2-39.38,17.68-49.02,34.39l-46.23,97.8c-9.64,16.72-3.37,28.59,13.95,26.4l204.9-25.56c10.58-1.34,22.91-7.69,33.12-16.19h-50.03l-5.38-10.51,25.91-53.13-4.66-9.1h-23.84l-13.62,9.15-27.59,56.57-10.49,7.05h-24.29l-5.4-10.54,25.89-53.08-25.89,53.08,25.9-53.1-4.68-9.13h-71.09l6.22-12.75c3.05-6.26,10.6-11.33,16.86-11.33h183.32c6.3,0,8.92,5.11,5.85,11.42l-36.32,74.46h24.2c1.9-2.37,3.62-4.79,5.04-7.25l46.51-97.21c9.64-16.72,3.37-28.59-13.95-26.4Zm-201.72,81.13l-26.32,53.89-10.43,7.01h-24.1l-5.5-10.74,24.47-50.17h41.88Z"/><polygon class="cls-1" points="518.2 125.01 513.46 134.73 546.8 134.73 533.89 161.19 535.37 164.08 546.49 164.08 550.75 161.21 563.67 134.73 596.93 134.73 601.67 125.01 518.2 125.01"/><path class="cls-1" d="m680.41,125.01h-61.21c-3.79,0-8.37,3.08-10.22,6.87l-8.09,16.58c-4.21,8.62-.62,15.61,8,15.61h61.2c3.81,0,8.4-3.09,10.25-6.89l8.08-16.56c4.21-8.62.63-15.62-8-15.62Zm-9.38,16.61l-4.43,9.08c-.99,2.02-3.43,3.66-5.45,3.66h-39.35c-3.81,0-5.39-3.09-3.53-6.9l4.42-9.06c.99-2.03,3.45-3.68,5.48-3.68h39.33c3.81,0,5.39,3.09,3.54,6.9Z"/><path class="cls-1" d="m719.14,134.73h67.1l2.5-5.12c1.24-2.54.18-4.6-2.35-4.6h-74.79c-2.54,0-5.61,2.06-6.85,4.6l-2.49,5.11-9.58,19.64-2.5,5.12c-1.24,2.54-.18,4.59,2.35,4.59h57.9c2.55,0,5.61-2.06,6.85-4.61l-2.25,4.61h16.89l7.28-14.92,4.44-9.1h-34.11l-4.44,9.1h17.22l-2.54,5.21h-46.76c-1.9,0-2.69-1.54-1.76-3.44l7.9-16.2Z"/><path class="cls-1" d="m873.59,140.05h-62.51c-1.47,0-2.08-1.19-1.36-2.66.72-1.47,2.49-2.66,3.96-2.66h65.93l3.06-6.27c.93-1.9.14-3.44-1.76-3.44h-74.72c-2.54,0-5.59,2.06-6.83,4.59l-12.01,24.62c-2.66,5.45-.39,9.86,5.05,9.86h72.89l3.06-6.27c.93-1.9.14-3.45-1.77-3.45h-62.54c-1.44,0-2.04-1.17-1.33-2.6.7-1.44,2.44-2.6,3.88-2.6h65.99l2.77-5.68c.92-1.89.14-3.42-1.75-3.42Z"/><polygon class="cls-1" points="961.79 125.01 950.01 149.16 919.23 125.01 896.13 125.01 877.07 164.08 893.97 164.08 907.65 136.03 942.73 164.08 959.63 164.08 978.68 125.01 961.79 125.01"/><path class="cls-1" d="m409.23,125.01h-73.94c-2.52,0-5.57,2.05-6.8,4.57l-2.51,5.14h28.67l1.89,3.68h0s-10.44,21.42-10.44,21.42l2.18,4.25h9.8l4.23-2.84,11.13-22.82,5.49-3.69h9.62l1.88,3.67-10.45,21.43,2.17,4.24h9.81l4.22-2.84,15.42-31.61c1.24-2.54.18-4.6-2.36-4.6Z"/><polygon class="cls-1" points="313.74 159.83 315.96 164.16 325.68 164.16 329.89 161.33 341.08 138.42 324.19 138.42 313.74 159.83"/><path class="cls-1" d="m366.12,106.3l1.57-11.22c.35-2.44.88-5.82,1.45-8.76h-.1c-1.23,2.78-2.64,5.87-3.94,8.41l-5.87,11.28h-3.2l-1.26-11.1c-.28-2.67-.49-5.74-.64-8.59h-.07c-.61,2.73-1.33,6.33-1.92,8.76l-2.75,11.22h-3.82l6.07-23.86h5.44l1.27,11.15c.18,2.14.45,4.61.48,6.87h.12c.86-2.26,2.01-4.76,3.04-6.84l5.75-11.18h5.53l-3.14,23.86h-4.01Z"/><path class="cls-1" d="m384.03,106.3c.01-1.02.15-2.4.29-3.88h-.08c-1.71,3.18-3.99,4.27-6.19,4.27-3.07,0-5.1-2.41-5.1-5.86,0-5.89,4.11-12.15,12.14-12.15,1.88,0,3.9.35,5.23.77l-1.79,9c-.49,2.57-.78,5.82-.71,7.86h-3.8Zm1.67-14.25c-.4-.11-.96-.19-1.69-.19-3.8,0-6.75,4.29-6.76,8.21,0,1.79.67,3.28,2.46,3.28,1.94,0,4.28-2.39,5.09-6.77l.89-4.53Z"/><path class="cls-1" d="m398.92,84.33l-.89,4.73h3.87l-.62,3.17h-3.88l-1.35,6.97c-.16.81-.31,1.7-.31,2.44,0,.93.42,1.55,1.54,1.55.48,0,.98-.03,1.39-.1l-.38,3.23c-.6.23-1.69.35-2.68.35-2.85,0-4.1-1.57-4.1-3.54,0-.97.11-1.93.37-3.21l1.49-7.69h-2.32l.6-3.17h2.33l.7-3.74,4.24-.99Z"/><path class="cls-1" d="m417.37,95.8c0,5.85-4.08,10.88-9.97,10.88-4.35,0-7.05-3-7.05-7.1,0-5.84,4.07-10.91,9.96-10.91,4.63,0,7.06,3.32,7.06,7.13Zm-12.75,3.67c0,2.36,1.25,4.03,3.36,4.03,3.07,0,5.13-4.26,5.13-7.67,0-1.79-.8-3.96-3.29-3.96-3.28,0-5.2,4.38-5.19,7.61Z"/><path class="cls-1" d="m418.2,109.37c1,.61,2.92,1.02,4.54,1.02,2.68,0,4.75-1.28,5.6-5.27l.42-1.95h-.09c-1.42,2.06-3.21,3.04-5.4,3.04-3.44,0-5.39-2.83-5.4-6.07-.02-5.76,4.14-11.47,11.27-11.47,2.24,0,4.4.5,6,1.2l-2.62,14.22c-.64,3.39-1.62,6.07-3.55,7.67-1.8,1.5-4.22,1.93-6.38,1.93s-4.28-.45-5.41-1.15l1.02-3.17Zm12.46-17.06c-.46-.22-1.34-.43-2.28-.43-3.62,0-6.16,3.9-6.17,7.61,0,1.82.73,3.52,2.76,3.52s4.12-2.46,4.71-5.57l.98-5.13Z"/><path class="cls-1" d="m448.5,105.31c-1.69.89-4.01,1.36-6.1,1.36-4.77,0-7.05-2.94-7.05-7.13,0-5.21,3.83-10.87,9.75-10.87,3.4,0,5.57,1.96,5.58,4.83,0,4.44-4.64,5.86-11.31,5.71-.06.61.09,1.76.46,2.45.68,1.18,1.92,1.76,3.54,1.76,1.94,0,3.52-.51,4.75-1.13l.39,3.01Zm-3.94-13.55c-2.56,0-4.26,2.3-4.77,4.39,4.25.05,6.98-.53,6.98-2.61,0-1.11-.88-1.79-2.21-1.79Z"/><path class="cls-1" d="m450.18,106.3l2.24-11.89c.41-2.07.67-3.86.88-5.35h3.66l-.38,3.1h.07c1.59-2.32,3.8-3.48,6.19-3.48s4.39,1.48,4.39,4.75c0,.77-.15,1.97-.3,2.84l-1.91,10.03h-4.12l1.83-9.72c.11-.63.21-1.37.21-2.05,0-1.44-.53-2.49-2.16-2.49-1.86,0-4.26,2.28-5.01,6.29l-1.49,7.98h-4.12Z"/><path class="cls-1" d="m478.55,99.49l-3.25,6.81h-4.38l11.95-23.86h5.16l3.01,23.86h-4.29l-.7-6.81h-7.49Zm7.27-3.19l-.67-5.93c-.12-1.28-.26-3.12-.37-4.55h-.08c-.63,1.44-1.25,3.13-1.93,4.53l-2.9,5.95h5.95Z"/><path class="cls-1" d="m490.71,113.31l3.38-17.83c.38-2.06.77-4.66.99-6.41h3.72l-.38,2.84h.07c1.47-2.05,3.62-3.23,5.82-3.23,3.74,0,5.44,3.03,5.44,6.39,0,6.02-4.15,11.62-10.03,11.62-1.59,0-2.8-.37-3.43-.74h-.08l-1.39,7.36h-4.11Zm6.17-10.67c.65.54,1.57.88,2.75.88,3.21,0,5.81-4.25,5.81-8.13,0-1.57-.69-3.34-2.72-3.34s-4.36,2.36-5.1,6.38l-.74,4.21Z"/><path class="cls-1" d="m508.25,113.31l3.38-17.83c.38-2.06.77-4.66.99-6.41h3.72l-.39,2.84h.07c1.47-2.05,3.61-3.23,5.82-3.23,3.73,0,5.44,3.03,5.44,6.39,0,6.02-4.15,11.62-10.03,11.62-1.59,0-2.8-.37-3.43-.74h-.07l-1.39,7.36h-4.11Zm6.17-10.67c.65.54,1.57.88,2.75.88,3.2,0,5.81-4.25,5.81-8.13,0-1.57-.68-3.34-2.72-3.34s-4.36,2.36-5.1,6.38l-.74,4.21Z"/><path class="cls-1" d="m527.27,106.3l4.8-25.13h4.12l-4.8,25.13h-4.12Z"/><path class="cls-1" d="m534.29,106.3l3.28-17.23h4.12l-3.28,17.23h-4.12Zm3.93-21.93c0-1.45,1.14-2.48,2.47-2.48s2.2.89,2.2,2.21c-.02,1.52-1.15,2.47-2.55,2.47-1.26,0-2.13-.89-2.12-2.2Z"/><path class="cls-1" d="m554.85,105.31c-1.69.89-4.01,1.36-6.11,1.36-4.77,0-7.05-2.94-7.05-7.13,0-5.21,3.83-10.87,9.75-10.87,3.4,0,5.58,1.96,5.58,4.83,0,4.44-4.64,5.86-11.31,5.71-.06.61.09,1.76.46,2.45.68,1.18,1.92,1.76,3.54,1.76,1.94,0,3.52-.51,4.75-1.13l.39,3.01Zm-3.94-13.55c-2.56,0-4.26,2.3-4.77,4.39,4.25.05,6.97-.53,6.97-2.61,0-1.11-.88-1.79-2.21-1.79Z"/><path class="cls-1" d="m576.01,81.16l-3.62,18.99c-.38,2.01-.68,4.27-.77,6.14h-3.77l.34-3.07h-.07c-1.54,2.36-3.68,3.46-5.9,3.46-3.1,0-5.24-2.5-5.24-6.4,0-6.05,4.42-11.61,10.75-11.61.87,0,1.92.18,2.66.49l1.53-8h4.1Zm-6.23,11.36c-.5-.37-1.35-.66-2.37-.66-3.53,0-6.15,3.91-6.15,7.78,0,2.08.82,3.7,2.77,3.7,1.82,0,4.04-2.01,4.74-5.57l1.02-5.25Z"/><path class="cls-1" d="m587.58,82.44l-4.54,23.86h-4.12l4.53-23.86h4.12Z"/><path class="cls-1" d="m586.12,106.3l2.24-11.89c.41-2.07.66-3.86.88-5.35h3.66l-.38,3.1h.07c1.59-2.32,3.8-3.48,6.19-3.48s4.39,1.48,4.39,4.75c0,.77-.15,1.97-.3,2.84l-1.91,10.03h-4.12l1.84-9.72c.11-.63.21-1.37.21-2.05,0-1.44-.53-2.49-2.16-2.49-1.86,0-4.26,2.28-5.01,6.29l-1.49,7.98h-4.12Z"/><path class="cls-1" d="m604.26,102.45c.9.49,2.59,1.15,4.14,1.14,1.68,0,2.67-.96,2.67-2.12,0-1.07-.58-1.76-2.26-2.64-1.99-1.03-3.41-2.52-3.41-4.49,0-3.32,2.9-5.66,6.98-5.66,1.81,0,3.29.42,4.05.87l-1.04,2.98c-.67-.34-1.82-.77-3.23-.77-1.55,0-2.61.82-2.61,1.99,0,.96.76,1.63,2.22,2.39,1.89,1.01,3.57,2.44,3.57,4.63,0,3.8-3.17,5.9-7.32,5.9-2.03,0-3.91-.59-4.83-1.28l1.06-2.94Z"/><path class="cls-1" d="m616.11,106.3l3.28-17.23h4.12l-3.28,17.23h-4.12Zm3.93-21.93c0-1.45,1.14-2.48,2.47-2.48s2.2.89,2.2,2.21c-.02,1.52-1.15,2.47-2.55,2.47-1.26,0-2.13-.89-2.12-2.2Z"/><path class="cls-1" d="m623.83,109.37c1.01.61,2.92,1.02,4.55,1.02,2.68,0,4.75-1.28,5.6-5.27l.42-1.95h-.08c-1.42,2.06-3.22,3.04-5.4,3.04-3.44,0-5.39-2.83-5.4-6.07-.02-5.76,4.13-11.47,11.26-11.47,2.24,0,4.4.5,6,1.2l-2.62,14.22c-.64,3.39-1.62,6.07-3.56,7.67-1.8,1.5-4.22,1.93-6.38,1.93s-4.28-.45-5.4-1.15l1.01-3.17Zm12.46-17.06c-.46-.22-1.34-.43-2.28-.43-3.62,0-6.16,3.9-6.17,7.61,0,1.82.73,3.52,2.77,3.52s4.12-2.46,4.7-5.57l.98-5.13Z"/><path class="cls-1" d="m640.6,106.3l4.77-25.13h4.12l-2.02,10.48h.07c1.44-1.8,3.37-2.97,5.78-2.97s4.32,1.47,4.32,4.64c0,.86-.13,2.08-.31,3.02l-1.89,9.96h-4.12l1.84-9.67c.13-.65.22-1.42.22-2.24,0-1.34-.6-2.35-2.16-2.35-2,0-4.28,2.4-4.96,6.04l-1.54,8.22h-4.12Z"/><path class="cls-1" d="m667.13,84.33l-.89,4.73h3.87l-.62,3.17h-3.88l-1.35,6.97c-.16.81-.31,1.7-.31,2.44,0,.93.42,1.55,1.54,1.55.48,0,.97-.03,1.39-.1l-.38,3.23c-.6.23-1.69.35-2.68.35-2.85,0-4.1-1.57-4.1-3.54,0-.97.11-1.93.37-3.21l1.49-7.69h-2.32l.6-3.17h2.33l.7-3.74,4.23-.99Z"/><path class="cls-1" d="m668.73,102.45c.9.49,2.59,1.15,4.14,1.14,1.68,0,2.67-.96,2.67-2.12,0-1.07-.58-1.76-2.26-2.64-1.99-1.03-3.41-2.52-3.41-4.49,0-3.32,2.9-5.66,6.98-5.66,1.81,0,3.29.42,4.05.87l-1.04,2.98c-.67-.34-1.82-.77-3.23-.77-1.55,0-2.61.82-2.61,1.99,0,.96.76,1.63,2.22,2.39,1.9,1.01,3.57,2.44,3.57,4.63,0,3.8-3.17,5.9-7.32,5.9-2.03,0-3.91-.59-4.83-1.28l1.06-2.94Z"/><path class="cls-1" d="m697.04,82.64c-1.22,1.94-2.25,3.88-3.1,5.82-.84,1.94-1.53,3.84-2.06,5.68s-.91,3.62-1.15,5.34-.35,3.31-.35,4.78c0,.53.01,1.1.04,1.71s.07,1.23.14,1.85.14,1.23.23,1.83.19,1.15.31,1.66c.03.19.04.34.03.48s-.09.25-.21.34-.32.16-.58.21-.63.07-1.09.07c-.32,0-.59-.01-.81-.03s-.4-.06-.54-.1-.24-.09-.3-.16-.11-.13-.13-.22c-.4-1.33-.73-2.73-.98-4.22-.25-1.49-.37-3.07-.37-4.74,0-1.44.11-2.95.33-4.53s.59-3.23,1.12-4.96,1.24-3.52,2.14-5.39c.89-1.86,2.01-3.8,3.36-5.8.07-.1.15-.19.25-.27s.23-.13.4-.18.38-.08.65-.1.6-.03,1-.03.75.02,1.01.06.45.1.59.18.2.19.21.31-.04.26-.15.42Z"/><path class="cls-1" d="m699.17,82.84c1.45-.35,3.61-.56,5.75-.56s4.57.44,6.11,1.69c1.4,1.07,2.2,2.62,2.2,4.74,0,2.84-1.34,5.1-3.06,6.48-1.9,1.53-4.65,2.25-7.45,2.25-.86,0-1.61-.08-2.24-.17l-1.73,9.03h-4.04l4.45-23.46Zm1.94,11.02c.67.14,1.29.2,2.15.2,3.5,0,5.82-2.21,5.82-5.03,0-2.54-1.82-3.45-4.13-3.45-1.05,0-1.83.08-2.3.2l-1.54,8.08Z"/><path class="cls-1" d="m721.11,84.33l-.89,4.73h3.87l-.62,3.17h-3.88l-1.35,6.97c-.16.81-.31,1.7-.31,2.44,0,.93.42,1.55,1.54,1.55.48,0,.97-.03,1.39-.1l-.38,3.23c-.6.23-1.69.35-2.68.35-2.85,0-4.1-1.57-4.1-3.54,0-.97.11-1.93.37-3.21l1.49-7.69h-2.32l.6-3.17h2.33l.7-3.74,4.23-.99Z"/><path class="cls-1" d="m727.86,89.06l1.34,8.3c.32,1.87.52,3.12.67,4.3h.08c.41-1.07.85-2.22,1.65-4.11l3.7-8.48h4.36l-6.29,12.7c-2.09,4.2-4.01,7.28-6.33,9.5-1.97,1.92-4.24,2.76-5.29,2.96l-.95-3.55c.77-.25,1.96-.7,3.03-1.49,1.16-.85,2.26-2.04,3.04-3.43.15-.27.15-.47.08-.81l-3.42-15.88h4.32Z"/><path class="cls-1" d="m735.94,111.42c1.21-1.94,2.24-3.87,3.09-5.81s1.53-3.83,2.07-5.68.92-3.63,1.16-5.34c.24-1.71.36-3.3.36-4.77,0-.54-.02-1.12-.05-1.73s-.08-1.23-.15-1.85-.14-1.23-.23-1.82-.2-1.15-.33-1.65c-.03-.19-.04-.35-.02-.48s.1-.26.22-.35.32-.16.58-.2.63-.06,1.1-.06c.32,0,.59,0,.8.03s.39.05.53.1.24.1.3.16.11.13.13.21c.4,1.33.73,2.73.98,4.22.25,1.49.37,3.07.37,4.76,0,1.44-.11,2.95-.33,4.53s-.59,3.23-1.12,4.95-1.24,3.52-2.13,5.39c-.89,1.87-2.01,3.8-3.36,5.79-.08.1-.17.19-.27.27s-.23.14-.4.19-.38.09-.64.11-.6.03-1.01.03-.77-.02-1.02-.07-.45-.11-.58-.19-.2-.18-.2-.3.05-.26.14-.42Z"/><path class="cls-1" d="m756.24,82.44h4.12l-3.85,20.26h9.37l-.68,3.6h-13.49l4.53-23.86Z"/><path class="cls-1" d="m775.14,84.33l-.89,4.73h3.87l-.62,3.17h-3.88l-1.35,6.97c-.16.81-.31,1.7-.31,2.44,0,.93.42,1.55,1.54,1.55.48,0,.97-.03,1.39-.1l-.38,3.23c-.6.23-1.69.35-2.68.35-2.85,0-4.1-1.57-4.1-3.54,0-.97.11-1.93.37-3.21l1.49-7.69h-2.32l.6-3.17h2.33l.7-3.74,4.23-.99Z"/><path class="cls-1" d="m795.51,81.16l-3.62,18.99c-.38,2.01-.68,4.27-.77,6.14h-3.77l.34-3.07h-.07c-1.54,2.36-3.68,3.46-5.9,3.46-3.1,0-5.24-2.5-5.24-6.4,0-6.05,4.42-11.61,10.75-11.61.87,0,1.92.18,2.66.49l1.53-8h4.1Zm-6.23,11.36c-.5-.37-1.35-.66-2.37-.66-3.53,0-6.15,3.91-6.15,7.78,0,2.08.82,3.7,2.77,3.7,1.82,0,4.04-2.01,4.74-5.57l1.02-5.25Z"/><path class="cls-1" d="m824.13,91.55c0,4.08-1.54,8.92-4.47,11.87-2.08,2.08-4.75,3.33-7.91,3.33-6.25,0-8.79-4.87-8.79-9.72,0-4.19,1.7-9.15,4.71-12.12,1.97-1.94,4.89-3.18,7.68-3.18,6.6,0,8.77,5.02,8.77,9.82Zm-15.41-5.62c-2.58,2.59-4.08,7.16-4.08,10.83,0,4.27,1.88,8.57,7.36,8.57,2.4,0,4.69-1.03,6.45-2.82,2.53-2.53,4.01-7.13,4.01-10.85s-1.15-8.53-7.36-8.53c-2.48,0-4.67,1.09-6.38,2.8Z"/><path class="cls-1" d="m824.66,106.35l2.38-12.61c.35-1.75.57-3.29.74-4.65h1.51l-.52,3.72h.07c1.51-2.54,3.95-4.12,6.63-4.12,1.56,0,4.32.84,4.32,4.84,0,.76-.13,1.73-.31,2.71l-1.92,10.1h-1.62l1.94-10.24c.13-.71.26-1.58.26-2.38,0-2.06-.83-3.6-3.33-3.6s-6.08,2.81-6.91,7.37l-1.63,8.84h-1.62Z"/><path class="cls-1" d="m848.22,84.58l-.88,4.52h4.4l-.28,1.34h-4.4l-1.86,9.98c-.22,1.14-.38,2.03-.38,3.11,0,1.15.57,1.82,1.73,1.82.58,0,1.04-.05,1.39-.18l.13,1.29c-.44.17-1.12.27-1.84.27-2.33,0-3.09-1.6-3.09-3.12,0-1.04.14-2.06.39-3.26l1.91-9.91h-2.63l.27-1.34h2.64l.75-4.05,1.74-.47Z"/><path class="cls-1" d="m850.65,104.32c.71.49,1.95,1,3.22,1,2.35,0,3.98-1.65,3.98-3.6,0-1.66-.64-2.67-2.55-3.79-2-1.19-2.79-2.75-2.79-4.29,0-2.66,2.28-4.93,5.42-4.93,1.29,0,2.54.42,3.06.84l-.59,1.38c-.51-.35-1.53-.81-2.68-.81-2.09,0-3.6,1.47-3.6,3.27,0,1.62.91,2.5,2.54,3.49,1.95,1.17,2.82,2.77,2.82,4.42,0,3.42-2.7,5.44-5.75,5.44-1.65,0-3.05-.58-3.68-1.08l.6-1.33Z"/><path class="cls-1" d="m861.84,106.35l4.86-25.52h1.63l-4.87,25.52h-1.62Z"/><path class="cls-1" d="m883.45,89.1l-2.41,12.61c-.32,1.75-.55,3.29-.67,4.65h-1.53l.53-3.54h-.07c-1.39,2.26-3.77,3.94-6.18,3.94-1.88,0-4.64-.75-4.64-5.11,0-.75.1-1.62.32-2.73l1.89-9.81h1.62l-1.89,9.86c-.21,1.06-.32,1.88-.32,2.69,0,2.21.91,3.64,3.4,3.64s5.79-2.8,6.54-6.8l1.79-9.38h1.62Z"/><path class="cls-1" d="m884.56,106.35l3.31-17.26h1.62l-3.31,17.26h-1.62Zm3.74-22.21c.02-.78.57-1.46,1.34-1.46s1.27.65,1.27,1.46c-.05.76-.54,1.45-1.38,1.45-.8,0-1.25-.68-1.22-1.45Z"/><path class="cls-1" d="m896.97,84.58l-.88,4.52h4.4l-.28,1.34h-4.4l-1.86,9.98c-.22,1.14-.38,2.03-.38,3.11,0,1.15.57,1.82,1.73,1.82.58,0,1.04-.05,1.39-.18l.13,1.29c-.44.17-1.12.27-1.84.27-2.33,0-3.09-1.6-3.09-3.12,0-1.04.14-2.06.39-3.26l1.91-9.91h-2.63l.27-1.34h2.64l.75-4.05,1.74-.47Z"/><path class="cls-1" d="m904.6,103.75c1.25.91,2.92,1.56,4.81,1.56,3.17,0,6.1-2.06,6.1-5.62,0-2.06-.99-3.68-3.71-5.2-3.42-1.86-4.7-3.82-4.7-6.09,0-3.99,3.39-6.65,7.34-6.65,2,0,3.78.72,4.48,1.3l-.7,1.28c-.75-.48-2.13-1.19-4.02-1.19-3.34,0-5.48,2.44-5.49,4.84,0,2.31,1.07,3.58,3.9,5.14,3.01,1.64,4.51,3.51,4.51,6.53,0,3.45-2.56,7.07-8.05,7.07-1.84,0-4.22-.73-5.15-1.65l.67-1.32Z"/><path class="cls-1" d="m934.61,89.1l-2.41,12.61c-.32,1.75-.55,3.29-.67,4.65h-1.53l.53-3.54h-.07c-1.39,2.26-3.77,3.94-6.18,3.94-1.88,0-4.64-.75-4.64-5.11,0-.75.1-1.62.32-2.73l1.89-9.81h1.62l-1.89,9.86c-.21,1.06-.32,1.88-.32,2.69,0,2.21.91,3.64,3.4,3.64s5.79-2.8,6.54-6.8l1.79-9.38h1.62Z"/><path class="cls-1" d="m935.73,106.35l4.86-25.52h1.62l-3.15,16.46h.07c.52-.57,1.22-1.21,1.65-1.61l7.13-6.58h2.02l-7.65,7.06,5.37,10.19h-1.74l-4.86-9.23-2.36,2.02-1.36,7.21h-1.61Z"/><path class="cls-1" d="m948.88,104.32c.71.49,1.95,1,3.22,1,2.35,0,3.98-1.65,3.98-3.6,0-1.66-.64-2.67-2.55-3.79-2-1.19-2.79-2.75-2.79-4.29,0-2.66,2.28-4.93,5.42-4.93,1.29,0,2.54.42,3.06.84l-.59,1.38c-.51-.35-1.53-.81-2.68-.81-2.09,0-3.6,1.47-3.6,3.27,0,1.62.91,2.5,2.54,3.49,1.95,1.17,2.82,2.77,2.82,4.42,0,3.42-2.7,5.44-5.75,5.44-1.65,0-3.05-.58-3.68-1.08l.6-1.33Z"/><path class="cls-1" d="m971.25,105.36c-.86.56-2.68,1.37-5.24,1.37-4.37,0-6-3.33-6-6.72,0-5.17,3.89-11.31,9.02-11.31,3.15,0,4.48,1.95,4.48,3.95,0,4.63-5.63,5.56-11.67,5.48-.24.91-.19,3.04.22,4.23.71,1.99,2.22,2.95,4.18,2.95,2.17,0,3.67-.73,4.53-1.24l.49,1.29Zm-2.51-15.25c-3.11,0-5.72,3.25-6.68,6.65,5.1.06,9.78-.6,9.78-3.99,0-1.77-1.31-2.66-3.1-2.66Z"/><path class="cls-1" d="m973.66,104.32c.71.49,1.95,1,3.22,1,2.35,0,3.98-1.65,3.98-3.6,0-1.66-.64-2.67-2.55-3.79-2-1.19-2.79-2.75-2.79-4.29,0-2.66,2.28-4.93,5.42-4.93,1.29,0,2.54.42,3.06.84l-.59,1.38c-.51-.35-1.53-.81-2.68-.81-2.09,0-3.6,1.47-3.6,3.27,0,1.62.91,2.5,2.54,3.49,1.95,1.17,2.82,2.77,2.82,4.42,0,3.42-2.7,5.44-5.75,5.44-1.65,0-3.05-.58-3.68-1.08l.6-1.33Z"/></svg>